<svg width="32" height="32" viewBox="0 0 32 32" fill="none" xmlns="http://www.w3.org/2000/svg">
<path fill-rule="evenodd" clip-rule="evenodd" d="M7.85159 13.3334L15.8534 5.33164L23.8551 13.3334H23.8534V17.3334H26.5201V15.9983L27.547 17.0252C28.0673 17.5456 28.9109 17.5456 29.4312 17.0252C29.9516 16.5049 29.9516 15.6613 29.4312 15.141L17.7374 3.44713C16.6969 2.40662 15.0099 2.40662 13.9693 3.44713L2.2755 15.141C1.75517 15.6613 1.75517 16.5049 2.2755 17.0252C2.79582 17.5456 3.63944 17.5456 4.15976 17.0252L5.18672 15.9983V26.6667C5.18672 28.1395 6.38062 29.3334 7.85338 29.3334H17.3333V26.6667H14.08V21.3334H17.4334C17.6301 20.3642 18.1072 19.4968 18.7763 18.8196C18.5085 18.7206 18.2203 18.6667 17.92 18.6667H14.08C12.6662 18.6667 11.52 19.8607 11.52 21.3334V26.6667H7.85338V13.3334H7.85159Z" fill="white"/>
<path d="M30.2808 28.4744L28.7208 26.9277C29.2194 26.0574 29.419 25.0476 29.289 24.053C29.1589 23.0584 28.7064 22.1339 28.0008 21.421C27.3515 20.7486 26.5148 20.2873 25.5995 20.0972C24.6843 19.9071 23.7331 19.9971 22.8697 20.3554C22.0063 20.7137 21.2709 21.3237 20.7592 22.106C20.2475 22.8882 19.9832 23.8064 20.0008 24.741C19.9962 25.5453 20.202 26.3368 20.5977 27.037C20.9933 27.7372 21.5652 28.3217 22.2565 28.7328C22.9478 29.1438 23.7345 29.3669 24.5387 29.3801C25.3428 29.3932 26.1365 29.1959 26.8408 28.8077L28.3875 30.3677C28.5114 30.4927 28.6589 30.5919 28.8214 30.6596C28.9839 30.7272 29.1581 30.7621 29.3342 30.7621C29.5102 30.7621 29.6845 30.7272 29.8469 30.6596C30.0094 30.5919 30.1569 30.4927 30.2808 30.3677C30.4058 30.2437 30.505 30.0963 30.5727 29.9338C30.6404 29.7713 30.6752 29.597 30.6752 29.421C30.6752 29.245 30.6404 29.0707 30.5727 28.9083C30.505 28.7458 30.4058 28.5983 30.2808 28.4744ZM26.0542 26.141C25.6733 26.4992 25.1703 26.6985 24.6475 26.6985C24.1247 26.6985 23.6217 26.4992 23.2408 26.141C22.8738 25.7674 22.6679 25.2648 22.6675 24.741C22.6647 24.478 22.7153 24.2172 22.8161 23.9743C22.917 23.7314 23.066 23.5114 23.2542 23.3277C23.6096 22.9741 24.0864 22.7692 24.5875 22.7544C24.8571 22.7378 25.1271 22.7771 25.3808 22.8699C25.6344 22.9626 25.8662 23.1068 26.0615 23.2933C26.2568 23.4798 26.4114 23.7047 26.5157 23.9539C26.62 24.203 26.6717 24.471 26.6675 24.741C26.6565 25.2705 26.4359 25.774 26.0542 26.141Z" fill="white"/>
</svg>
