<svg width="32" height="32" viewBox="0 0 32 32" fill="none" xmlns="http://www.w3.org/2000/svg">
<path d="M12.6667 13.3333C15.244 13.3333 17.3333 11.244 17.3333 8.66667C17.3333 6.08934 15.244 4 12.6667 4C10.0893 4 8 6.08934 8 8.66667C8 11.244 10.0893 13.3333 12.6667 13.3333Z" stroke="white" stroke-width="2.6" stroke-linecap="round" stroke-linejoin="round"/>
<path d="M28 10L22.6667 15.3333" stroke="white" stroke-width="2.6" stroke-linecap="round" stroke-linejoin="round"/>
<path d="M22.6667 9.99992L28.0001 15.3333" stroke="white" stroke-width="2.6" stroke-linecap="round" stroke-linejoin="round"/>
<path d="M1.36675 28.0001C1.36675 28.7181 1.94878 29.3001 2.66675 29.3001H22.6667C23.3847 29.3001 23.9667 28.7181 23.9667 28.0001L23.9668 27.8856C23.9668 26.7563 23.9669 26.0583 23.8872 25.4529C23.3378 21.2796 20.0539 17.9957 15.8806 17.4463C15.2752 17.3666 14.5772 17.3667 13.4478 17.3667C13.4102 17.3667 13.372 17.3667 13.3334 17.3667H12.0001C11.9615 17.3667 11.9233 17.3667 11.8857 17.3667C10.7563 17.3667 10.0583 17.3666 9.45286 17.4463C5.27963 17.9957 1.99573 21.2796 1.44631 25.4529C1.3666 26.0583 1.36666 26.7563 1.36674 27.8857C1.36675 27.9233 1.36675 27.9615 1.36675 28.0001Z" stroke="white" stroke-width="2.6" stroke-linecap="round" stroke-linejoin="round"/>
</svg>
