<svg width="22" height="27" viewBox="0 0 22 27" fill="none" xmlns="http://www.w3.org/2000/svg">
<path d="M18.375 13.9487C18.3443 10.635 21.1722 9.02288 21.3015 8.94783C19.7 6.68285 17.2176 6.37339 16.3453 6.34871C14.2604 6.13589 12.238 7.55882 11.176 7.55882C10.0928 7.55882 8.45728 6.36927 6.69462 6.40423C4.42637 6.43816 2.30439 7.71201 1.14059 9.69014C-1.26121 13.7235 0.530066 19.6507 2.83117 22.9109C3.98226 24.5076 5.32731 26.2903 7.08785 26.2276C8.81024 26.1587 9.45361 25.1625 11.5321 25.1625C13.5916 25.1625 14.1957 26.2276 15.9913 26.1875C17.8398 26.1587 19.0036 24.5836 20.1144 22.9726C21.4446 21.1425 21.9788 19.3402 22 19.2476C21.9565 19.2333 18.41 17.9203 18.375 13.9487Z" fill="white"/>
<path d="M14.9833 4.20403C15.9096 3.08028 16.5435 1.55145 16.3675 0C15.0267 0.0575754 13.3499 0.899615 12.3843 1.99869C11.53 2.96719 10.7669 4.55462 10.964 6.04747C12.4702 6.15645 14.0166 5.3103 14.9833 4.20403Z" fill="white"/>
</svg>
