<svg width="161" height="28" viewBox="0 0 161 28" fill="none" xmlns="http://www.w3.org/2000/svg">
<path fill-rule="evenodd" clip-rule="evenodd" d="M13.7753 0.841309L25.6426 5.944C26.4102 6.27403 26.9072 7.02684 26.9072 7.85933V23.608C26.9072 25.6699 25.2286 27.3414 23.1579 27.3414H21.5418C20.2749 27.3414 19.0255 27.0477 17.8924 26.4835L13.7951 24.4436L10.018 26.4137C8.84971 27.0231 7.55048 27.3414 6.2316 27.3414H4.96269C2.892 27.3414 1.21338 25.6699 1.21338 23.608V7.84588C1.21338 7.02641 1.69518 6.28282 2.44501 5.94506L13.7753 0.841309ZM15.607 23.136L18.7801 24.7157C19.6376 25.1426 20.5831 25.3649 21.5418 25.3649H23.1579C24.1323 25.3649 24.9223 24.5783 24.9223 23.608V7.85933C24.9223 7.81551 24.8961 7.77589 24.8557 7.75852L13.7939 3.00221L3.26313 7.74584C3.22367 7.76361 3.19831 7.80275 3.19831 7.84588V23.608C3.19831 24.5783 3.98825 25.3649 4.96269 25.3649H6.2316C7.22967 25.3649 8.21287 25.124 9.097 24.6629L11.9867 23.1557L10.8038 22.2023C8.4019 20.2661 6.84115 17.4832 6.44568 14.4313L5.96487 10.7209C5.87216 10.0055 6.29148 9.32217 6.97308 9.07784L13.7721 6.64062L21.0831 9.06722C21.8182 9.31123 22.2578 10.0601 22.1106 10.8177L21.3122 14.9251C20.7745 17.6915 19.2737 20.1804 17.0742 21.9533L15.607 23.136ZM13.7846 22.0621L15.8253 20.4171C17.6616 18.9369 18.9145 16.8591 19.3634 14.5495L20.0883 10.8204L13.7971 8.7323L7.97883 10.818L8.41429 14.1784C8.74445 16.7263 10.0475 19.0496 12.0528 20.6661L13.7846 22.0621Z" fill="#0BAEB9"/>
<path fill-rule="evenodd" clip-rule="evenodd" d="M17.5517 12.8213C17.9231 13.1911 17.9231 13.7906 17.5517 14.1604L13.6845 18.0112L11.3026 15.903C10.91 15.5555 10.8747 14.957 11.2236 14.5662C11.5725 14.1753 12.1736 14.1401 12.5661 14.4875L13.6077 15.4094L16.2069 12.8213C16.5783 12.4515 17.1804 12.4515 17.5517 12.8213Z" fill="#0BAEB9"/>
<path d="M84.3032 10.1433C82.808 10.1433 81.7244 10.5543 81.0523 11.3765C80.3939 12.1852 80.0647 13.2972 80.0647 14.7125C80.0647 15.3999 80.147 16.0266 80.3116 16.5927C80.4762 17.1453 80.7231 17.6238 81.0523 18.0282C81.3815 18.4325 81.793 18.7493 82.2868 18.9784C82.7806 19.194 83.3567 19.3019 84.0151 19.3019C84.3718 19.3019 84.6735 19.2951 84.9204 19.2817C85.1811 19.2682 85.4074 19.2412 85.5994 19.2008V14.3283H88.8092V21.263C88.4251 21.4113 87.8079 21.5663 86.9574 21.728C86.107 21.9032 85.0576 21.9908 83.8094 21.9908C82.7395 21.9908 81.7656 21.8291 80.8877 21.5056C80.0235 21.1821 79.2828 20.7104 78.6655 20.0904C78.0483 19.4704 77.5682 18.7088 77.2253 17.8058C76.896 16.9027 76.7314 15.8716 76.7314 14.7125C76.7314 13.5398 76.9166 12.502 77.287 11.5989C77.6573 10.6959 78.1649 9.93434 78.8096 9.31433C79.4543 8.68084 80.2087 8.20236 81.0728 7.87887C81.9507 7.55539 82.8835 7.39365 83.8711 7.39365C84.5432 7.39365 85.1468 7.44082 85.6817 7.53517C86.2304 7.61604 86.6968 7.71713 87.0809 7.83844C87.4786 7.94627 87.801 8.06083 88.0479 8.18214C88.3085 8.30344 88.4937 8.39779 88.6034 8.46519L87.6775 10.9924C87.2386 10.7633 86.7311 10.5678 86.155 10.4061C85.5926 10.2309 84.9753 10.1433 84.3032 10.1433Z" fill="#4E4E4E"/>
<path d="M100.586 21.3641C100.064 21.5123 99.3924 21.6471 98.5693 21.7684C97.7463 21.9032 96.8822 21.9706 95.9768 21.9706C95.0578 21.9706 94.2897 21.8493 93.6724 21.6067C93.0689 21.3641 92.5888 21.0271 92.2321 20.5958C91.8755 20.151 91.6217 19.6254 91.4708 19.0188C91.32 18.4123 91.2445 17.7451 91.2445 17.0173V11.0935H94.3102V16.6534C94.3102 17.6238 94.4405 18.3247 94.7012 18.756C94.9618 19.1873 95.4487 19.403 96.162 19.403C96.3815 19.403 96.6147 19.3962 96.8616 19.3827C97.1085 19.3558 97.328 19.3288 97.52 19.3019V11.0935H100.586V21.3641Z" fill="#4E4E4E"/>
<path d="M107.357 19.6254C107.658 19.6254 107.946 19.6186 108.221 19.6051C108.495 19.5917 108.715 19.5714 108.879 19.5445V17.2599C108.756 17.2329 108.571 17.206 108.324 17.179C108.077 17.1521 107.85 17.1386 107.645 17.1386C107.357 17.1386 107.082 17.1588 106.822 17.1992C106.575 17.2262 106.355 17.2868 106.163 17.3812C105.971 17.4755 105.82 17.6036 105.711 17.7653C105.601 17.9271 105.546 18.1292 105.546 18.3719C105.546 18.8436 105.704 19.1738 106.019 19.3625C106.348 19.5377 106.794 19.6254 107.357 19.6254ZM107.11 10.8104C108.015 10.8104 108.77 10.9115 109.373 11.1137C109.977 11.3159 110.457 11.6057 110.813 11.9831C111.184 12.3605 111.444 12.8187 111.595 13.3579C111.746 13.897 111.822 14.4968 111.822 15.1572V21.4247C111.383 21.5191 110.772 21.6269 109.99 21.7482C109.208 21.883 108.262 21.9504 107.151 21.9504C106.451 21.9504 105.814 21.8897 105.237 21.7684C104.675 21.6471 104.188 21.4517 103.777 21.1821C103.365 20.8991 103.05 20.5352 102.83 20.0904C102.611 19.6456 102.501 19.0997 102.501 18.4527C102.501 17.8327 102.624 17.3071 102.871 16.8757C103.132 16.4444 103.475 16.1007 103.9 15.8446C104.325 15.5886 104.812 15.4066 105.361 15.2988C105.91 15.1775 106.479 15.1168 107.069 15.1168C107.466 15.1168 107.816 15.137 108.118 15.1775C108.433 15.2044 108.687 15.2449 108.879 15.2988V15.0157C108.879 14.5035 108.721 14.0924 108.406 13.7824C108.091 13.4724 107.542 13.3174 106.76 13.3174C106.239 13.3174 105.724 13.3579 105.217 13.4387C104.709 13.5061 104.27 13.6072 103.9 13.742L103.509 11.3159C103.687 11.262 103.907 11.2081 104.167 11.1541C104.442 11.0867 104.737 11.0328 105.052 10.9924C105.368 10.9385 105.697 10.898 106.04 10.8711C106.396 10.8307 106.753 10.8104 107.11 10.8104Z" fill="#4E4E4E"/>
<path d="M120.874 13.7622C120.599 13.6948 120.277 13.6274 119.907 13.56C119.536 13.4792 119.138 13.4387 118.713 13.4387C118.521 13.4387 118.288 13.459 118.014 13.4994C117.753 13.5263 117.554 13.56 117.417 13.6005V21.728H114.351V11.6596C114.9 11.4709 115.545 11.2957 116.285 11.1339C117.04 10.9587 117.876 10.8711 118.795 10.8711C118.96 10.8711 119.159 10.8846 119.392 10.9115C119.625 10.925 119.859 10.952 120.092 10.9924C120.325 11.0194 120.558 11.0598 120.791 11.1137C121.024 11.1541 121.223 11.2081 121.388 11.2754L120.874 13.7622Z" fill="#4E4E4E"/>
<path d="M125.201 16.3299C125.201 17.2599 125.414 18.0079 125.839 18.574C126.264 19.1401 126.895 19.4232 127.732 19.4232C128.006 19.4232 128.26 19.4164 128.493 19.403C128.726 19.376 128.918 19.349 129.069 19.3221V13.8431C128.877 13.7218 128.623 13.6207 128.308 13.5398C128.006 13.459 127.698 13.4185 127.382 13.4185C125.928 13.4185 125.201 14.389 125.201 16.3299ZM132.135 21.3843C131.861 21.4652 131.545 21.546 131.188 21.6269C130.832 21.6943 130.455 21.755 130.057 21.8089C129.673 21.8628 129.275 21.9032 128.863 21.9302C128.466 21.9706 128.082 21.9908 127.711 21.9908C126.82 21.9908 126.024 21.8628 125.324 21.6067C124.625 21.3506 124.035 20.9867 123.555 20.5149C123.075 20.0297 122.705 19.4501 122.444 18.7762C122.197 18.0888 122.074 17.3205 122.074 16.4714C122.074 15.6088 122.183 14.8338 122.403 14.1464C122.622 13.4455 122.938 12.8524 123.349 12.3672C123.761 11.882 124.261 11.5113 124.851 11.2552C125.455 10.9991 126.141 10.8711 126.909 10.8711C127.334 10.8711 127.711 10.9115 128.04 10.9924C128.383 11.0733 128.726 11.1878 129.069 11.3361V6.52429L132.135 6.03906V21.3843Z" fill="#4E4E4E"/>
<path d="M137.829 21.728H134.763V11.0935H137.829V21.728ZM138.117 8.0204C138.117 8.57301 137.932 9.01106 137.561 9.33455C137.205 9.64455 136.779 9.79955 136.286 9.79955C135.792 9.79955 135.36 9.64455 134.989 9.33455C134.633 9.01106 134.454 8.57301 134.454 8.0204C134.454 7.46778 134.633 7.03647 134.989 6.72646C135.36 6.40298 135.792 6.24124 136.286 6.24124C136.779 6.24124 137.205 6.40298 137.561 6.72646C137.932 7.03647 138.117 7.46778 138.117 8.0204Z" fill="#4E4E4E"/>
<path d="M144.604 19.6254C144.905 19.6254 145.193 19.6186 145.468 19.6051C145.742 19.5917 145.962 19.5714 146.126 19.5445V17.2599C146.003 17.2329 145.818 17.206 145.571 17.179C145.324 17.1521 145.097 17.1386 144.892 17.1386C144.604 17.1386 144.329 17.1588 144.069 17.1992C143.822 17.2262 143.602 17.2868 143.41 17.3812C143.218 17.4755 143.067 17.6036 142.958 17.7653C142.848 17.9271 142.793 18.1292 142.793 18.3719C142.793 18.8436 142.951 19.1738 143.266 19.3625C143.595 19.5377 144.041 19.6254 144.604 19.6254ZM144.357 10.8104C145.262 10.8104 146.017 10.9115 146.62 11.1137C147.224 11.3159 147.704 11.6057 148.06 11.9831C148.431 12.3605 148.691 12.8187 148.842 13.3579C148.993 13.897 149.069 14.4968 149.069 15.1572V21.4247C148.63 21.5191 148.019 21.6269 147.237 21.7482C146.455 21.883 145.509 21.9504 144.398 21.9504C143.698 21.9504 143.061 21.8897 142.484 21.7684C141.922 21.6471 141.435 21.4517 141.024 21.1821C140.612 20.8991 140.297 20.5352 140.077 20.0904C139.858 19.6456 139.748 19.0997 139.748 18.4527C139.748 17.8327 139.871 17.3071 140.118 16.8757C140.379 16.4444 140.722 16.1007 141.147 15.8446C141.572 15.5886 142.059 15.4066 142.608 15.2988C143.157 15.1775 143.726 15.1168 144.316 15.1168C144.713 15.1168 145.063 15.137 145.365 15.1775C145.68 15.2044 145.934 15.2449 146.126 15.2988V15.0157C146.126 14.5035 145.968 14.0924 145.653 13.7824C145.338 13.4724 144.789 13.3174 144.007 13.3174C143.486 13.3174 142.971 13.3579 142.464 13.4387C141.956 13.5061 141.517 13.6072 141.147 13.742L140.756 11.3159C140.934 11.262 141.154 11.2081 141.414 11.1541C141.689 11.0867 141.984 11.0328 142.299 10.9924C142.615 10.9385 142.944 10.898 143.287 10.8711C143.643 10.8307 144 10.8104 144.357 10.8104Z" fill="#4E4E4E"/>
<path d="M151.598 11.4574C152.119 11.3091 152.792 11.1744 153.615 11.0531C154.438 10.9183 155.302 10.8509 156.207 10.8509C157.126 10.8509 157.887 10.9722 158.491 11.2148C159.108 11.4439 159.595 11.7741 159.952 12.2055C160.308 12.6368 160.562 13.149 160.713 13.742C160.864 14.3351 160.939 14.9955 160.939 15.7233V21.728H157.874V16.0873C157.874 15.1168 157.743 14.4294 157.483 14.0251C157.222 13.6207 156.735 13.4185 156.022 13.4185C155.802 13.4185 155.569 13.432 155.322 13.459C155.075 13.4724 154.856 13.4927 154.664 13.5196V21.728H151.598V11.4574Z" fill="#4E4E4E"/>
<path d="M43.5005 7.76234V9.50639H39.0138V22.1507H37.0174V9.50639H32.5308V7.76234H43.5005Z" fill="#4E4E4E"/>
<path d="M47.1565 22.1507H45.2425V11.3542H47.1565V22.1507ZM46.1892 9.40257C45.8462 9.40257 45.5512 9.29184 45.3042 9.07037C45.071 8.83507 44.9544 8.52363 44.9544 8.13607C44.9544 7.7485 45.071 7.44399 45.3042 7.22252C45.5512 6.98721 45.8462 6.86956 46.1892 6.86956C46.5322 6.86956 46.8204 6.98721 47.0536 7.22252C47.3006 7.44399 47.4241 7.7485 47.4241 8.13607C47.4241 8.52363 47.3006 8.83507 47.0536 9.07037C46.8204 9.29184 46.5322 9.40257 46.1892 9.40257Z" fill="#4E4E4E"/>
<path d="M51.996 11.3542H56.0505V12.9737H51.996V17.9567C51.996 18.4965 52.0372 18.9464 52.1195 19.3062C52.2018 19.6523 52.3253 19.9291 52.49 20.1367C52.6546 20.3305 52.8604 20.4689 53.1074 20.552C53.3544 20.635 53.6425 20.6766 53.9718 20.6766C54.5481 20.6766 55.0077 20.6143 55.3507 20.4897C55.7075 20.3513 55.9544 20.2544 56.0916 20.199L56.4621 21.7977C56.27 21.8946 55.9338 22.0123 55.4536 22.1507C54.9734 22.303 54.4246 22.3791 53.8071 22.3791C53.0799 22.3791 52.4762 22.2891 51.996 22.1092C51.5295 21.9154 51.1522 21.6316 50.864 21.2579C50.5759 20.8842 50.3701 20.4274 50.2466 19.8876C50.1369 19.3339 50.082 18.6972 50.082 17.9775V8.34369L51.996 8.01149V11.3542Z" fill="#4E4E4E"/>
<path d="M61.4542 22.3583C60.2742 22.3306 59.4372 22.0746 58.9433 21.5901C58.4493 21.1057 58.2024 20.3513 58.2024 19.327V6.37126L60.1164 6.03906V19.0156C60.1164 19.3339 60.1438 19.5969 60.1987 19.8045C60.2536 20.0122 60.3428 20.1783 60.4663 20.3028C60.5898 20.4274 60.7544 20.5243 60.9602 20.5935C61.166 20.6489 61.4199 20.6973 61.7217 20.7389L61.4542 22.3583Z" fill="#4E4E4E"/>
<path d="M63.0317 16.7732C63.0317 15.8182 63.1689 14.9877 63.4433 14.2817C63.7177 13.562 64.0813 12.9668 64.5341 12.4962C64.9869 12.0256 65.5083 11.6726 66.0983 11.4373C66.6883 11.202 67.292 11.0843 67.9094 11.0843C69.3501 11.0843 70.4546 11.5411 71.223 12.4546C71.9913 13.3544 72.3755 14.7316 72.3755 16.5864C72.3755 16.6694 72.3755 16.7802 72.3755 16.9186C72.3755 17.0431 72.3686 17.1608 72.3549 17.2715H65.0281C65.1104 18.3927 65.4328 19.244 65.9954 19.8253C66.5579 20.4067 67.4361 20.6973 68.6298 20.6973C69.3021 20.6973 69.8646 20.642 70.3174 20.5312C70.7839 20.4067 71.1338 20.289 71.367 20.1783L71.6346 21.7977C71.4013 21.9223 70.9897 22.0538 70.3997 22.1922C69.8235 22.3306 69.1649 22.3998 68.4239 22.3998C67.4909 22.3998 66.6814 22.2614 65.9954 21.9846C65.3231 21.6939 64.7674 21.2994 64.3283 20.8011C63.8892 20.3028 63.56 19.7146 63.3404 19.0363C63.1346 18.3443 63.0317 17.5899 63.0317 16.7732ZM70.3791 15.7143C70.3929 14.8423 70.1733 14.1295 69.7205 13.5758C69.2815 13.0083 68.6709 12.7246 67.8888 12.7246C67.4498 12.7246 67.0587 12.8145 66.7157 12.9945C66.3864 13.1606 66.1051 13.382 65.8719 13.6589C65.6386 13.9357 65.4534 14.2541 65.3162 14.6139C65.1927 14.9738 65.1104 15.3406 65.0692 15.7143H70.3791Z" fill="#4E4E4E"/>
</svg>
