<svg width="161" height="29" viewBox="0 0 161 29" fill="none" xmlns="http://www.w3.org/2000/svg">
<path fill-rule="evenodd" clip-rule="evenodd" d="M13.775 1.0835L25.6424 6.18619C26.4099 6.51622 26.907 7.26902 26.907 8.10152V23.8502C26.907 25.9121 25.2283 27.5836 23.1577 27.5836H21.5415C20.2747 27.5836 19.0252 27.2899 17.8921 26.7257L13.7949 24.6858L10.0178 26.6559C8.84947 27.2652 7.55024 27.5836 6.23135 27.5836H4.96245C2.89176 27.5836 1.21313 25.9121 1.21313 23.8502V8.08807C1.21313 7.26859 1.69493 6.52501 2.44476 6.18725L13.775 1.0835ZM15.6068 23.3782L18.7798 24.9579C19.6373 25.3848 20.5828 25.6071 21.5415 25.6071H23.1577C24.1321 25.6071 24.922 24.8205 24.922 23.8502V8.10152C24.922 8.0577 24.8959 8.01808 24.8555 8.00071L13.7937 3.24439L3.26289 7.98803C3.22342 8.0058 3.19807 8.04494 3.19807 8.08807V23.8502C3.19807 24.8205 3.98801 25.6071 4.96245 25.6071H6.23135C7.22943 25.6071 8.21263 25.3662 9.09676 24.9051L11.9864 23.3979L10.8036 22.4444C8.40166 20.5083 6.84091 17.7254 6.44543 14.6735L5.96462 10.9631C5.87192 10.2477 6.29124 9.56436 6.97284 9.32003L13.7719 6.88281L21.0828 9.30941C21.818 9.55342 22.2576 10.3023 22.1103 11.0599L21.312 15.1673C20.7742 17.9337 19.2735 20.4226 17.074 22.1955L15.6068 23.3782ZM13.7844 22.3042L15.8251 20.6593C17.6613 19.1791 18.9143 17.1013 19.3632 14.7917L20.088 11.0626L13.7969 8.97449L7.97858 11.0601L8.41404 14.4206C8.74421 16.9685 10.0472 19.2918 12.0525 20.9082L13.7844 22.3042Z" fill="white"/>
<path fill-rule="evenodd" clip-rule="evenodd" d="M17.5517 13.0635C17.9231 13.4333 17.9231 14.0328 17.5517 14.4026L13.6845 18.2534L11.3026 16.1452C10.91 15.7977 10.8747 15.1992 11.2236 14.8084C11.5725 14.4175 12.1736 14.3823 12.5661 14.7297L13.6077 15.6516L16.2069 13.0635C16.5783 12.6937 17.1804 12.6937 17.5517 13.0635Z" fill="white"/>
<path d="M84.3032 10.3854C82.808 10.3854 81.7244 10.7965 81.0523 11.6187C80.3939 12.4274 80.0647 13.5394 80.0647 14.9546C80.0647 15.642 80.147 16.2688 80.3116 16.8349C80.4762 17.3875 80.7231 17.866 81.0523 18.2703C81.3815 18.6747 81.793 18.9914 82.2868 19.2206C82.7806 19.4362 83.3567 19.5441 84.0151 19.5441C84.3718 19.5441 84.6735 19.5373 84.9204 19.5238C85.1811 19.5104 85.4074 19.4834 85.5994 19.443V14.5705H88.8092V21.5052C88.4251 21.6534 87.8079 21.8084 86.9574 21.9702C86.107 22.1454 85.0576 22.233 83.8094 22.233C82.7395 22.233 81.7656 22.0713 80.8877 21.7478C80.0235 21.4243 79.2828 20.9526 78.6655 20.3326C78.0483 19.7125 77.5682 18.951 77.2253 18.0479C76.896 17.1449 76.7314 16.1138 76.7314 14.9546C76.7314 13.782 76.9166 12.7442 77.287 11.8411C77.6573 10.9381 78.1649 10.1765 78.8096 9.55652C79.4543 8.92303 80.2087 8.44454 81.0728 8.12106C81.9507 7.79758 82.8835 7.63583 83.8711 7.63583C84.5432 7.63583 85.1468 7.68301 85.6817 7.77736C86.2304 7.85823 86.6968 7.95932 87.0809 8.08062C87.4786 8.18845 87.801 8.30302 88.0479 8.42433C88.3085 8.54563 88.4937 8.63998 88.6034 8.70737L87.6775 11.2346C87.2386 11.0055 86.7311 10.81 86.155 10.6483C85.5926 10.4731 84.9753 10.3854 84.3032 10.3854Z" fill="white"/>
<path d="M100.586 21.6063C100.064 21.7545 99.3924 21.8893 98.5693 22.0106C97.7463 22.1454 96.8822 22.2128 95.9768 22.2128C95.0578 22.2128 94.2897 22.0915 93.6724 21.8489C93.0689 21.6063 92.5888 21.2693 92.2321 20.838C91.8755 20.3932 91.6217 19.8675 91.4708 19.261C91.32 18.6545 91.2445 17.9873 91.2445 17.2595V11.3357H94.3102V16.8955C94.3102 17.866 94.4405 18.5669 94.7012 18.9982C94.9618 19.4295 95.4487 19.6451 96.162 19.6451C96.3815 19.6451 96.6147 19.6384 96.8616 19.6249C97.1085 19.598 97.328 19.571 97.52 19.5441V11.3357H100.586V21.6063Z" fill="white"/>
<path d="M107.357 19.8675C107.658 19.8675 107.946 19.8608 108.221 19.8473C108.495 19.8338 108.715 19.8136 108.879 19.7867V17.5021C108.756 17.4751 108.571 17.4482 108.324 17.4212C108.077 17.3942 107.85 17.3808 107.645 17.3808C107.357 17.3808 107.082 17.401 106.822 17.4414C106.575 17.4684 106.355 17.529 106.163 17.6234C105.971 17.7177 105.82 17.8458 105.711 18.0075C105.601 18.1693 105.546 18.3714 105.546 18.614C105.546 19.0858 105.704 19.416 106.019 19.6047C106.348 19.7799 106.794 19.8675 107.357 19.8675ZM107.11 11.0526C108.015 11.0526 108.77 11.1537 109.373 11.3559C109.977 11.5581 110.457 11.8479 110.813 12.2253C111.184 12.6027 111.444 13.0609 111.595 13.6001C111.746 14.1392 111.822 14.739 111.822 15.3994V21.6669C111.383 21.7613 110.772 21.8691 109.99 21.9904C109.208 22.1252 108.262 22.1926 107.151 22.1926C106.451 22.1926 105.814 22.1319 105.237 22.0106C104.675 21.8893 104.188 21.6939 103.777 21.4243C103.365 21.1413 103.05 20.7773 102.83 20.3326C102.611 19.8878 102.501 19.3419 102.501 18.6949C102.501 18.0749 102.624 17.5492 102.871 17.1179C103.132 16.6866 103.475 16.3429 103.9 16.0868C104.325 15.8307 104.812 15.6488 105.361 15.541C105.91 15.4196 106.479 15.359 107.069 15.359C107.466 15.359 107.816 15.3792 108.118 15.4196C108.433 15.4466 108.687 15.487 108.879 15.541V15.2579C108.879 14.7457 108.721 14.3346 108.406 14.0246C108.091 13.7146 107.542 13.5596 106.76 13.5596C106.239 13.5596 105.724 13.6001 105.217 13.6809C104.709 13.7483 104.27 13.8494 103.9 13.9842L103.509 11.5581C103.687 11.5042 103.907 11.4502 104.167 11.3963C104.442 11.3289 104.737 11.275 105.052 11.2346C105.368 11.1807 105.697 11.1402 106.04 11.1133C106.396 11.0728 106.753 11.0526 107.11 11.0526Z" fill="white"/>
<path d="M120.874 14.0044C120.599 13.937 120.277 13.8696 119.907 13.8022C119.536 13.7214 119.138 13.6809 118.713 13.6809C118.521 13.6809 118.288 13.7011 118.014 13.7416C117.753 13.7685 117.554 13.8022 117.417 13.8427V21.9702H114.351V11.9018C114.9 11.7131 115.545 11.5378 116.285 11.3761C117.04 11.2009 117.876 11.1133 118.795 11.1133C118.96 11.1133 119.159 11.1268 119.392 11.1537C119.625 11.1672 119.859 11.1942 120.092 11.2346C120.325 11.2615 120.558 11.302 120.791 11.3559C121.024 11.3963 121.223 11.4502 121.388 11.5176L120.874 14.0044Z" fill="white"/>
<path d="M125.201 16.5721C125.201 17.5021 125.414 18.2501 125.839 18.8162C126.264 19.3823 126.895 19.6654 127.732 19.6654C128.006 19.6654 128.26 19.6586 128.493 19.6451C128.726 19.6182 128.918 19.5912 129.069 19.5643V14.0853C128.877 13.964 128.623 13.8629 128.308 13.782C128.006 13.7011 127.698 13.6607 127.382 13.6607C125.928 13.6607 125.201 14.6312 125.201 16.5721ZM132.135 21.6265C131.861 21.7074 131.545 21.7882 131.188 21.8691C130.832 21.9365 130.455 21.9971 130.057 22.0511C129.673 22.105 129.275 22.1454 128.863 22.1724C128.466 22.2128 128.082 22.233 127.711 22.233C126.82 22.233 126.024 22.105 125.324 21.8489C124.625 21.5928 124.035 21.2289 123.555 20.7571C123.075 20.2719 122.705 19.6923 122.444 19.0184C122.197 18.331 122.074 17.5627 122.074 16.7136C122.074 15.851 122.183 15.0759 122.403 14.3885C122.622 13.6877 122.938 13.0946 123.349 12.6094C123.761 12.1242 124.261 11.7535 124.851 11.4974C125.455 11.2413 126.141 11.1133 126.909 11.1133C127.334 11.1133 127.711 11.1537 128.04 11.2346C128.383 11.3155 128.726 11.43 129.069 11.5783V6.76647L132.135 6.28125V21.6265Z" fill="white"/>
<path d="M137.829 21.9702H134.763V11.3357H137.829V21.9702ZM138.117 8.26258C138.117 8.8152 137.932 9.25325 137.561 9.57673C137.205 9.88674 136.779 10.0417 136.286 10.0417C135.792 10.0417 135.36 9.88674 134.989 9.57673C134.633 9.25325 134.454 8.8152 134.454 8.26258C134.454 7.70997 134.633 7.27866 134.989 6.96865C135.36 6.64517 135.792 6.48343 136.286 6.48343C136.779 6.48343 137.205 6.64517 137.561 6.96865C137.932 7.27866 138.117 7.70997 138.117 8.26258Z" fill="white"/>
<path d="M144.604 19.8675C144.905 19.8675 145.193 19.8608 145.468 19.8473C145.742 19.8338 145.962 19.8136 146.126 19.7867V17.5021C146.003 17.4751 145.818 17.4482 145.571 17.4212C145.324 17.3942 145.097 17.3808 144.892 17.3808C144.604 17.3808 144.329 17.401 144.069 17.4414C143.822 17.4684 143.602 17.529 143.41 17.6234C143.218 17.7177 143.067 17.8458 142.958 18.0075C142.848 18.1693 142.793 18.3714 142.793 18.614C142.793 19.0858 142.951 19.416 143.266 19.6047C143.595 19.7799 144.041 19.8675 144.604 19.8675ZM144.357 11.0526C145.262 11.0526 146.017 11.1537 146.62 11.3559C147.224 11.5581 147.704 11.8479 148.06 12.2253C148.431 12.6027 148.691 13.0609 148.842 13.6001C148.993 14.1392 149.069 14.739 149.069 15.3994V21.6669C148.63 21.7613 148.019 21.8691 147.237 21.9904C146.455 22.1252 145.509 22.1926 144.398 22.1926C143.698 22.1926 143.061 22.1319 142.484 22.0106C141.922 21.8893 141.435 21.6939 141.024 21.4243C140.612 21.1413 140.297 20.7773 140.077 20.3326C139.858 19.8878 139.748 19.3419 139.748 18.6949C139.748 18.0749 139.871 17.5492 140.118 17.1179C140.379 16.6866 140.722 16.3429 141.147 16.0868C141.572 15.8307 142.059 15.6488 142.608 15.541C143.157 15.4196 143.726 15.359 144.316 15.359C144.713 15.359 145.063 15.3792 145.365 15.4196C145.68 15.4466 145.934 15.487 146.126 15.541V15.2579C146.126 14.7457 145.968 14.3346 145.653 14.0246C145.338 13.7146 144.789 13.5596 144.007 13.5596C143.486 13.5596 142.971 13.6001 142.464 13.6809C141.956 13.7483 141.517 13.8494 141.147 13.9842L140.756 11.5581C140.934 11.5042 141.154 11.4502 141.414 11.3963C141.689 11.3289 141.984 11.275 142.299 11.2346C142.615 11.1807 142.944 11.1402 143.287 11.1133C143.643 11.0728 144 11.0526 144.357 11.0526Z" fill="white"/>
<path d="M151.598 11.6996C152.119 11.5513 152.792 11.4165 153.615 11.2952C154.438 11.1605 155.302 11.0931 156.207 11.0931C157.126 11.0931 157.887 11.2144 158.491 11.457C159.108 11.6861 159.595 12.0163 159.952 12.4476C160.308 12.879 160.562 13.3911 160.713 13.9842C160.864 14.5772 160.939 15.2377 160.939 15.9655V21.9702H157.874V16.3294C157.874 15.359 157.743 14.6716 157.483 14.2672C157.222 13.8629 156.735 13.6607 156.022 13.6607C155.802 13.6607 155.569 13.6742 155.322 13.7011C155.075 13.7146 154.856 13.7348 154.664 13.7618V21.9702H151.598V11.6996Z" fill="white"/>
<path d="M43.5005 8.00453V9.74857H39.0138V22.3929H37.0174V9.74857H32.5308V8.00453H43.5005Z" fill="white"/>
<path d="M47.1565 22.3929H45.2425V11.5964H47.1565V22.3929ZM46.1892 9.64476C45.8462 9.64476 45.5512 9.53403 45.3042 9.31256C45.071 9.07726 44.9544 8.76582 44.9544 8.37825C44.9544 7.99069 45.071 7.68617 45.3042 7.46471C45.5512 7.2294 45.8462 7.11175 46.1892 7.11175C46.5322 7.11175 46.8204 7.2294 47.0536 7.46471C47.3006 7.68617 47.4241 7.99069 47.4241 8.37825C47.4241 8.76582 47.3006 9.07726 47.0536 9.31256C46.8204 9.53403 46.5322 9.64476 46.1892 9.64476Z" fill="white"/>
<path d="M51.996 11.5964H56.0505V13.2159H51.996V18.1989C51.996 18.7387 52.0372 19.1886 52.1195 19.5484C52.2018 19.8945 52.3253 20.1713 52.49 20.3789C52.6546 20.5727 52.8604 20.7111 53.1074 20.7942C53.3544 20.8772 53.6425 20.9188 53.9718 20.9188C54.5481 20.9188 55.0077 20.8565 55.3507 20.7319C55.7075 20.5935 55.9544 20.4966 56.0916 20.4412L56.4621 22.0399C56.27 22.1368 55.9338 22.2545 55.4536 22.3929C54.9734 22.5451 54.4246 22.6213 53.8071 22.6213C53.0799 22.6213 52.4762 22.5313 51.996 22.3514C51.5295 22.1576 51.1522 21.8738 50.864 21.5001C50.5759 21.1264 50.3701 20.6696 50.2466 20.1298C50.1369 19.5761 50.082 18.9394 50.082 18.2196V8.58588L51.996 8.25368V11.5964Z" fill="white"/>
<path d="M61.4542 22.6005C60.2742 22.5728 59.4372 22.3168 58.9433 21.8323C58.4493 21.3478 58.2024 20.5935 58.2024 19.5692V6.61345L60.1164 6.28125V19.2578C60.1164 19.5761 60.1438 19.8391 60.1987 20.0467C60.2536 20.2544 60.3428 20.4205 60.4663 20.545C60.5898 20.6696 60.7544 20.7665 60.9602 20.8357C61.166 20.8911 61.4199 20.9395 61.7217 20.981L61.4542 22.6005Z" fill="white"/>
<path d="M63.0317 17.0154C63.0317 16.0603 63.1689 15.2299 63.4433 14.5239C63.7177 13.8042 64.0813 13.209 64.5341 12.7384C64.9869 12.2677 65.5083 11.9148 66.0983 11.6795C66.6883 11.4442 67.292 11.3265 67.9094 11.3265C69.3501 11.3265 70.4546 11.7833 71.223 12.6968C71.9913 13.5965 72.3755 14.9738 72.3755 16.8286C72.3755 16.9116 72.3755 17.0223 72.3755 17.1608C72.3755 17.2853 72.3686 17.403 72.3549 17.5137H65.0281C65.1104 18.6349 65.4328 19.4861 65.9954 20.0675C66.5579 20.6488 67.4361 20.9395 68.6298 20.9395C69.3021 20.9395 69.8646 20.8841 70.3174 20.7734C70.7839 20.6488 71.1338 20.5312 71.367 20.4205L71.6346 22.0399C71.4013 22.1645 70.9897 22.296 70.3997 22.4344C69.8235 22.5728 69.1649 22.642 68.4239 22.642C67.4909 22.642 66.6814 22.5036 65.9954 22.2268C65.3231 21.9361 64.7674 21.5416 64.3283 21.0433C63.8892 20.545 63.56 19.9568 63.3404 19.2785C63.1346 18.5864 63.0317 17.8321 63.0317 17.0154ZM70.3791 15.9565C70.3929 15.0845 70.1733 14.3717 69.7205 13.818C69.2815 13.2505 68.6709 12.9667 67.8888 12.9667C67.4498 12.9667 67.0587 13.0567 66.7157 13.2367C66.3864 13.4028 66.1051 13.6242 65.8719 13.9011C65.6386 14.1779 65.4534 14.4962 65.3162 14.8561C65.1927 15.216 65.1104 15.5828 65.0692 15.9565H70.3791Z" fill="white"/>
</svg>
