<svg width="20" height="17" viewBox="0 0 20 17" fill="none" xmlns="http://www.w3.org/2000/svg">
<path fill-rule="evenodd" clip-rule="evenodd" d="M7.7 2.6C8.41797 2.6 9 2.01797 9 1.3C9 0.58203 8.41797 0 7.7 0H1.3C0.58203 0 0 0.58203 0 1.3C0 2.01797 0.58203 2.6 1.3 2.6H7.7ZM18.7 7C19.418 7 20 7.58203 20 8.3C20 9.01797 19.418 9.6 18.7 9.6H1.3C0.58203 9.6 0 9.01797 0 8.3C0 7.58203 0.582029 7 1.3 7H18.7ZM18.7 14C19.418 14 20 14.582 20 15.3C20 16.018 19.418 16.6 18.7 16.6H12.3C11.582 16.6 11 16.018 11 15.3C11 14.582 11.582 14 12.3 14H18.7Z" fill="white"/>
</svg>
